<mxfile host="app.diagrams.net" agent="Mozilla/5.0 (Windows NT 10.0; Win64; x64) AppleWebKit/537.36 (KHTML, like Gecko) Chrome/127.0.0.0 Safari/537.36" version="24.7.7">
  <diagram name="Page-1" id="s8eNIQwH0MQpDUffbeFc">
    <mxGraphModel dx="388" dy="921" grid="1" gridSize="10" guides="1" tooltips="1" connect="1" arrows="1" fold="1" page="1" pageScale="1" pageWidth="850" pageHeight="1100" math="0" shadow="0">
      <root>
        <mxCell id="0" />
        <mxCell id="1" parent="0" />
        <mxCell id="qrhnkttYhv8li2d0B4WN-1" value="" style="shape=image;verticalLabelPosition=bottom;labelBackgroundColor=default;verticalAlign=top;aspect=fixed;imageAspect=0;image=data:image/png,/9j/4AAQSkZJRgABAQAAAQABAAD/4gHYSUNDX1BST0ZJTEUAAQEAAAHIAAAAAAQwAABtbnRyUkdCIFhZWiAH4AABAAEAAAAAAABhY3NwAAAAAAAAAAAAAAAAAAAAAAAAAAAAAAAAAAAAAQAA9tYAAQAAAADTLQAAAAAAAAAAAAAAAAAAAAAAAAAAAAAAAAAAAAAAAAAAAAAAAAAAAAAAAAAAAAAAAAAAAAlkZXNjAAAA8AAAACRyWFlaAAABFAAAABRnWFlaAAABKAAAABRiWFlaAAABPAAAABR3dHB0AAABUAAAABRyVFJDAAABZAAAAChnVFJDAAABZAAAAChiVFJDAAABZAAAAChjcHJ0AAABjAAAADxtbHVjAAAAAAAAAAEAAAAMZW5VUwAAAAgAAAAcAHMAUgBHAEJYWVogAAAAAAAAb6IAADj1AAADkFhZWiAAAAAAAABimQAAt4UAABjaWFlaIAAAAAAAACSgAAAPhAAAts9YWVogAAAAAAAA9tYAAQAAAADTLXBhcmEAAAAAAAQAAAACZmYAAPKnAAANWQAAE9AAAApbAAAAAAAAAABtbHVjAAAAAAAAAAEAAAAMZW5VUwAAACAAAAAcAEcAbwBvAGcAbABlACAASQBuAGMALgAgADIAMAAxADb/2wBDAAMCAgMCAgMDAwMEAwMEBQgFBQQEBQoHBwYIDAoMDAsKCwsNDhIQDQ4RDgsLEBYQERMUFRUVDA8XGBYUGBIUFRT/2wBDAQMEBAUEBQkFBQkUDQsNFBQUFBQUFBQUFBQUFBQUFBQUFBQUFBQUFBQUFBQUFBQUFBQUFBQUFBQUFBQUFBQUFBT/wAARCAHXAOADASIAAhEBAxEB/8QAHgABAAICAwEBAQAAAAAAAAAAAAYHBQgCAwQBCQr/xABWEAABAwQAAwIGCQ4LBwQDAAABAAIDBAUGEQcSIRMxCBQWIkFRFRdVVmF1lLPTCSMyNjc4cXOBk5W00dQzQlJTVJGSobHB0iQ1YnJ2o7ImNEN0GILw/8QAGgEBAQADAQEAAAAAAAAAAAAAAAECAwQFBv/EADcRAQABAgEIBgkEAwEAAAAAAAABAhEDEhQhUVJhkaEEEzFBsdEFIzNTcYHB0uEyQqLwFSKywv/aAAwDAQACEQMRAD8A/VNERAREQEREBERAReC9XiGx0LqmVkk7iQyKngAMk8h+xYwEgbJ9ZAHUkgAkYcYlJfx22Sy+N84/3XDIfE4uvcRoGU+guf0Poa3eltpoiYyqptH97Fsy8+RWqmkLJrnRxPHe19Qxp/qJXX5VWX3YoPlLP2rriw6wU7eWKyW2NvqZSRgf4Ls8lbL7j0HyZn7Fn6nfyXQeVVl92KD5Sz9qeVVl92KD5Sz9qeStl9x6D5Mz9ieStl9x6D5Mz9iep38jQeVVl92KD5Sz9qeVVl92KD5Sz9qeStl9x6D5Mz9ieStl9x6D5Mz9iep38jQeVVl92KD5Sz9q5RZJaJ3hsd0opHH0NqGE/wCK4+Stl9x6D5Mz9i4S4hYp2Fkllt0jD3tdSRkH+5PU7+SaGWB2NjqF9UYOExWj69jkxskrSXeKx9aOX/hdF3NHwx8rvhI6HKWK9C8QSiSB1HW07+yqaSQ7dE/4D/GaR1a4d4PoOwMaqItlUTeOZbUyaIi0oIiICIiAiIgIiICIiAiIgIiIIw3V34gytk06Gz0jHxtO+k8xeC71bEbNA+qR3r6ydRi2DxPiDfIn7HjlJTVMZ10dyl8bxv1j63/aCk66MbtiI7LR4XnndZERFzoq+DwkcEutBkNRZbpNeZLLR1FbKymoKosmZC7keYpOyLZQHkNJjL9bXiwbwlsXyXhDbs7uprLLTSwU3jcMltqz2dRMxrhFDuEOqBt2g+Jrmu9BVbcLLdfabKbxieIWTK7Pw6qrRXmW2ZbbzTxWque/UcdFM7zpI388hLAXtboEOG9Lw2nJMypvB1wPGqDHs1x2px99stGUuo7TI2uFGyF8czqE8p7X65FHt8PMQx+x17gvKLwgOH8uAVWajI4WY1R1TKGqrJIJmGmndIyMRyxlgkjPNIzfM0aDgTodVEst8K/F8dvGGQU1Ldq63X6tqaWWrbZbgHwsip3S88cQpy6bmdyAco+xLnDYaSKRlwS81uC8W7fS4plzqO65Tj1yoIb9BPU1dXSiekbLI5zy9ziOwkc5rjzMZy84b3K9+P8ABcbXlfC7LqWy3O+2/Hr1PJcKez0rqqqZFNRTwCRsTfOeGve3fKCQDvSC4qedlVTxTR83ZyND287S06I2NggEH4D1XYvLa69t1tlHWtgnpm1MLJhDVRGKWMOaDyvYerXDeiD1B2F6kBRi8kWnM7HXMDWi5c9sqO/b9MfNCT/ylkoH40qTqM5S3xzIcUo27L21sla/TdgRxwSNJ36PPliH5Vvwf1TG6fCVhJkRFoQREQEREBERAREQEREBERAREQYbIrPNWmkr6AxsutC4vpzKSGSNcNPieR1DXADro8rg12ncuj1xVloze1V1srKVk0csToK+03CMF7WuBa5ksZ2C0jY31a4dQXAgnOrFXrGLZkBjfW03NPGCI6mGR0M8YPeGysIe30dxHcFupqpqiKa+7vX4oWfBq4TEa9rbFv0RB/pXbSeDrwtoKqGppuHeMQVEL2yRSx2qFrmOB2HAhvQgje1nDg8jSeyyW/Qt/k+NMfr8r2OP96eRNR76r9+eh+iWXV4e3yktGtKEUX8iaj31X789D9EsJnFhuGO4VkF1pcpvZqqG31FVEJJIS3nZG5zdjs+o2AnV4e3yktGtYaKmOAbrzxK4M4flN3yi7tud1t8dVUCmfEyMPd38oMZIH5Sp/wCRNR76r9+eh+iTq8Pb5SWjWxN24A8NL9c6q43LAccr7hVSOmnqqi1wvkle47c5zi3ZJPUkrzP8G7hTIdv4cYu4gAbNpgPQDQH2PqCz/kTUe+q/fnofok8iJXDlkya/SNPePGI2/wB7Ywf706vD2+Ulo1vTBHj/AA4sFJb6KmpbPbYdxUluooQwEkl3JFE0dSSSeVo9JX2w2upfX1N6uUYhuFSxsMdOHB3isDSS1mx0LySXPI6b0AXBgce6z4lbLHO6op4Hy1jhyuq6uZ885B7x2jyXAfADr4FmFJqppiaaO/vPgIiLQgiIgIiICIiAiIgIiICIiAiIgIiICIiAotxV+5fmHxNWfMPUpUW4q/cvzD4mrPmHoIT4IX3snDb4mh/zVvqoPBC+9k4bfE0P+at9AREQEREBERAREQEREBERAREQEREBERAREQEREBERAUW4q/cvzD4mrPmHqUqLcVfuX5h8TVnzD0EJ8EL72Tht8TQ/5q31UHghfeycNviaH/NW+gIiICIiAiIgIiICIiAiIgIiICIiAiIgIixWQ3+Ow0sThC+qq6h/ZU1LGdOlfonWz0a0AElx7gD3nQOVNM1zk09oyqKEm/Zg47FtsjAf4vjsztfl7Ib/AKgvns7mH9Asfyub6NdWa1644wtk3RQj2dzD+gWP5XN9Gns7mH9Asfyub6NM1r1xxgsm6/Ob6qRwKMNZaeKlrptxzcttvJYO54H+zzHp6QDGSeg5Yx3lbxezuYf0Cx/K5vo1GuJeN3zipgV8xK9WyySW27UzqeQtqpS6M97JG7i1zMcGuG/S0JmteuOMFmif1L7gzUZLxRreIlS18VtxqN9NSvGwJquaNzHDfcQyJ7yR65I1+pCovgZw5vXAfhpasOs9JZqmGjDnzVktRK2Spme4ufI4CP0k6A66a1o30U99ncw/oFj+VzfRpmteuOMFk3RQj2dzD+gWP5XN9Gns7mH9Asfyub6NM1r1xxgsm6KEezuYf0Cx/K5vo19F9zAd9vsh+DxuYb/7SZrXrjjBZNkWFx3IjeTUU1TTeJXKl5e3p+fnbyu3yvY/Q5mO5XaOgdtIIBCzS5q6ZonJq7UERFgCIiAiIgIiICIiAiIgKGZkf/V+Kj0f7Wfy9m39pUzUMzL7cMV/BV/+DV19F9r8qv8AmVhkEVX+EJk9+xfFLE7Hbp7D3C45HbLW6r8Xjn5Yp6lsb/MeCD0d8B9RHeqq4q8UM+4RU/ELH/Kg32upMaiyG0XmooKeOopiasU8kMjGMETx3FruQH7IHetrbNVkbSoqLyuvz2w5HheERZq994yuorKqovjrbTat8FNAx74aaLk5TzPeOV0vaEN5t8xAURvfGjMsap7riNfkVLFc7fl9DYKjM5aKJrYKKqpvGWTPj/ghKDqHZAZtzSR6CyrDaJFqW3ijxCix+6w27NWXqo9sK345b8gloKY009LI2ISDkYwBxa97g9zSNlp5SzqpvxNu+V4zU2HFbPn2R3TK5KeprZIbXj9vqqqeHnAZLL2gihhiYTyehzyeh2CmUL9RayYjxUzjivJwmpqbIBirsjxy4V10ko6GGZ/b08sDA6LtWuDCS5/Qhw04jW+VzfFifEniLT4xhuWXXL2XWKszBuLVlqFrghhmhNbJR9vzNHO2XmaJOjgzrrl9JZUDahFqjf8AiJxLjxPLMsos2ZTNtGcTY/TWqS008lO+mNxbTN7V2hIXMEo0WubsMAOyS5ZnLOMeW8GY+KNDcrp5ZT2O2Wy4Wqqq6WGCQSVk76fs5REI2OY2RrXDo06JBd6UyoGyqLWFuZ8YsYtuRVdfBfp7VDj1xq33K/2+1UzqCsigMkDoW0s8naMcQ4FkjTrTfOI2rd4KQ5PV4Xa75lGTSX6tu9vpKs0zaSCCCkc6PmcI+Rgc7fM3Ze53VuwGg6Viq4ltjOuJFcPXaYd/D9ek1/if61N1CLJ90mt+KYfnpFN1q6V+uPhHgsiIi40EREBERAREQEREBERAUMzL7cMV/BV/+DVM1GsxtFVUyW250UJqqm3SPcaZrg100b2FrmtJ6B32JGyAeXRI3sdPRqopxIvqmOMTCwrDwhsDu3ETErHa7Oyfto8itlXPNSzshlp6eOpa6WVjnEacxoLhrZ2BoE9F45fBmx2vsGV0F1vWQXuvyaCKkrr3cauOStbBG7mZFERGI42BxJ0GdSSTs61PjmMDej7VfmuHe32Gqna/K2Mg/kKeWdN7mX79CVf0S7eornTkyuTLwcQ+GVt4jRWt9TWXC0XS1VBqbfdrTMIaqleWFj+VzmuaWua4tc1zS0jvHQKteIHAeO1cKq2yY9SXzJq+vuzLncp/Zanhrq+T0ySPqInQSABrAInMDPNbrlIBVs+WdN7mX79CVf0SeWdN7mX79CVf0Ss4Fc/tkyZ1Kf4XcIsnvNhbQZ1LcaC0Wm+UN3x+gqKiikrYDT+eWTvpomwmN0nUNaOYDfnDorDzXg/QZnk9JkMd6vePXeGjdbpamyVTYXVNMX8/ZSczHdA7ZDmcrhs6cFnfLOm9zL9+hKv6JdVXn1voKWaqqaK9U9NAx0ks0tmq2sjYBsucTHoAAEklTqK7WyZMmdSM4RwDx7AK7Gai2Vdze3HaSuoaCCpmY9jYaqVkr2uPIHO5SwBpJ3rey49Vzp+BFgpsVtOPtrLkaO25CMlheZY+0dUirdVcjjyaMfO4jQAPLoc2+qzlm4m2bIrXTXO1RXW5W6qYJIKuktNVLFKw9zmvbGQ4fCCvZ5Z03uZfv0JV/RK9RXsyZM6kXquBFgq8UvWPvrLkKK6385HPI2WPtG1Jq2VXI08mhHzsA0QTy787fVe2/wDBjG8pvOU193imuEeSWuC0V1FK8CEwxOlcws0A5r9yuPNzdNNI0RtZvyzpvcy/foSr+iTyzpvcy/foSr+iTqK9kyZ1IjaOBVNb7FerRW5jlt/ornbJbQWXa4sl8WgkbykxgRgF4Hc94e71k9dz3HrLBjVgtlopXySU1vpoqSJ8pBe5jGBoLiABvQG9ALweWdN7mX79CVf0S+jMqd3QWu+k+r2Fqx/eY06muP2ymTL1WT7pNb8Uw/PSKbqKYpbKqa71t8q6Z9D28EdLT0s2u0bGxz3F79b0XF/RuyQGjeiS0StcXSZicTR3RHgSIiLlQREQEREBERAREQEREBERAREQEREBRbir9y/MPias+YepSotxV+5fmHxNWfMPQQnwQvvZOG3xND/mrfVQeCF97Jw2+Jof81b6AiIgIiICIiAiIgIiICIiAiIgIiICIiAiIgIiICIiAotxV+5fmHxNWfMPUpUW4q/cvzD4mrPmHoIT4IX3snDb4mh/zVvqoPBC+9k4bfE0P+at9AREQEREBERAREQEREBERAREQEREBERAREQEREBEXB80cZ06RrT6iQEHNac+GV4ZNz4H3q6YLV8P/ZGgvVpf4lexdzEHtlY6N5Mfi7gHMfzebz9RynpzdNwfGof56P8AtBa0eH3wTh4y8EKuut7WTZHjPPcqIM0XyxBv1+Ed5PMxocAOpdG0elW0iqPAT8MOqy+qwjg9T4M9sVvtskdRfmXPnEccMTnCR0PYjQc/kZ9n0Lx1Pcd81pd9TQ4JRYFwxqs6usbIr1k55aYSdHw0LD5vf1HaPBf6i1sZW5njUP8APR/2glpHai62zxPcGtkY4n0BwK7FAREQEREBERAREQEREBERAREQEREBERAREQRzPLlUW+zwR0srqeasq4aTtmfZRte8Bxb0Pncu9HXQ6UfHD7GNefj9tmeerpJ6Vkkjz63OcCXH4SSVleJH/sbL8bUv/kV5coym1YVj9dfL5XRW21UUfaVFVNvlY3YA7upJJAAHUkgDqV6mFVOHgxNM2vdl2RoeX2vsW97Vn+QRf6U9r7Fve1Z/kEX+lR8cd8J8kZMmN0qG2iOrFC5z7bVNn7ctDhH2Bi7UnlIPRncV32vjZhV6tVmuVFfGT0d3uXsRSSeLyjdZpx7CQFgMT/NPSQN9A7yN59fibc8UvOtmfa+xb3tWf5BF/pT2vsW97Vn+QRf6Vj7zxcxHHp8ghuN6ipH2AU/sj2kUmoXTgmFgPLp73juYzmd1b084bxcHhAYDUYveMh9n2w2yzviZcTUUk8M1IZXBsZkhewSNDi4aJbrvO9A6dfibc8S860k9r/FwDrHLS34W0UQPfsdQ31gFZjBKyXd4tckz6iO2VTYYJJXF7+ydFHI1rnHqS0vI2dkgN2SdlYnEM2tGd22Wvss09RRxymHtZ6SanDzytdzM7VjedhDmkPbtp30J0V7sF+2DL/8A7sP6rEscSqrEwqsqb2j6xC9sTdMkRF5TEREQEREBERAREQEREBERAREQEREBERBEeJH/ALGy/G1L/wCRUY4xWq1XvhrfaG92a5X+1zRNE1BZ4y+rf9caWuiAIPMxwDxo78zpvuUo4jsLrdaX682O60pcdd25OUf3uA/KvUvSo04NPz+jKeyGqTL/AMT6jCooaoZnJicWStpn3RlsMOSTWnxckF0LGh4+v8rDI1gkLPO0OpXLB+FtzyTh5xescVrv9krqm+sv2O1ORdo6oMrYKd9NMZnucXO7Wn04Fxe0HTgCdLatFjksWpuS8LMouPCbGMpr7PdKnIKnKmZfkdms9RJT17YpI3xiGBzXNf2lPE6FoaHAns3ekr7m2AWrKOEGdXHG8VzqW8V3sbQP8qTW1FXWQR1kUuo4qh75ORnNIT5o/jHu2VtiimSAAA0OgXgwX7YMv/8Auw/qsS968WDMPs3lsg6sdXxNB16RSw7Hw94//gVtn2dfw+sMo7JTBEReWxEREBERAREQEREBERAREQEREBERARFQHFDwhbrdcqqOHHB+hgyfO2+ZX3KU7tlgaTovqJB0dIOuohs7B2CRykJLx545Y5wyt8NjqLfJluV3pphtmJUDe0qa5x3ouGj2cY0SZCOnKdbI0vLwowLiPNikdRnuVm33md5kbbbJDDJHRRn7GF80zJHTPHpfvXo87XMfXwU8Hq1cJpa2+V9dPlmfXUc11ym5DdROem2RjqIohoaY30BuydDVsrdRi14eimfr4reyG+QFw9+d7/MUX7unkBcPfne/zFF+7qZItmc4m7hHkXQ3yAuHvzvf5ii/d08gLh7873+Yov3dTJEznE3cI8i6HswGtB+uZfepWHvb2dG3+8U4IWqP1QXgpf7bh1u4hYHc7pb3Y/B4vdKOjq5QX0/aOkFT0O3PbJI8vcdkh/MT5h3u8umso4LhST0tVDHUU07HRSwytDmSMcNOa4HoQQSCFrrxq8SLVTo+UeBd+JPCrivxEyrObJj9TxqyDDLZXVQZUXatvlWKalb3l7miQAk60AS1pJaHOaNuH7cU1TFWU8U8ErJ4JWh8csbg5r2kbBBHQgj0qg+DXgVcPOEdLmVM+1UWSRZFVv17J0gkdTUB5Syi29zg5rXgu5wGlx5ObZjaRg6ngFnvAKolufA+9C4Y/wAxkn4e5HO6SlIPU+JzuPNC71Bx0SducdALSjZxFTPCbwo8Y4j3h2MXamq8Gz2HTajF7+3sagu9cLjpszT1ILepHXlAVzICIiAiIgIiICIiAiIgIiIC89wuFLaaGora6pho6OnjdLNUVDwyONgGy5zj0AA6klehaucUMel48+FIOGWSXOrbw/s+PQ3+ex0buyZcqg1BYG1Dx5zox0PKCOo9fVB9ufEbMPCuuVRYOGNVU4pw0ie6C6Z6Yyyor9HT4Lc06I9IMx7uutaAfenC/hVjHBzE6fHcVtkdut8XnPcPOlqJD9lJK89XvPrPwAaAAEktlro7Jbqa32+lhoaGmjbFBTU0YjjiYBoNa0dAAPQF6kBERAREQEREBERAREQQTizwQwzjZZm2/LLNFXOi2aatj+t1VK7+VFK3zmnejrejobBVM9pxm8GM/XBV8a+HEP8AHbryht0Y9foqgB/+x/4AFtCiCDcKONmG8a7IbliV6huIj0Kikd9bqaV38mWJ3nMOwRsjR0dEqcql+K/gs41xCvbcpslXV4Fn0W3Q5PYD2Uzj6p2AhszT02HaJA1za6L0eCPxJvnFzwfMVynJJoqi9VgqY6iaGIRNkMVTLEHco6AlsYJ1ob3oDuQXAiIgIiICIiAiIgIiIC12sn3/ABkv/QVN+ulWN4QXC1vGrgzlWGdt2E1zpQKeQnTWzxvbLDzf8PaRs38G1+H9owa9XvN6bEaaglOQVFcLa2ieNPbOX8hY71ad3+rRQf0Boodwe4aUHB3hljuG21xkpbTTCIykaMshJfLJr0c0jnu16OZTFAREQEREBERAREQEREBERAWu31Pv70rCvxlw/X6hbErXb6n396VhX4y4fr9Qg2JREQEREBERBichyGKwQQ/WZKusqH9nT0sOuaR2tkkno1oHUuPQD1kgHAuyjKyfMx208uh9neZAfygUx/xTKHH2wsdZ0LfY24O6j0iSkAP9RP8AWsivSoow6cOmqqm99Om+uY7pjUy7GN8qMt97ln/TUv7qnlRlvvcs/wCmpf3VZJFn6r3cfy80vuY3yoy33uWf9NS/uqoq0eDjUWjwmrjxijslndV1VOeztXsnII4KxzQySpD/ABfqXM5hy8v2T3O2SQBsOieq93H8vMvuY3yoy33uWf8ATUv7qnlRlvvcs/6al/dVklxjkZKwPY5r2nuc07BT1Xu4/l5l9zH+VGW+9yz/AKal/dUGU5WDt+OWot9IjvMhd+QGmA/vCySJbC93H8vMvuZGxXyG/Ubpo45KeWJ5inppgBJDIACWu1sdxBBBIIIIJBBWSUMwonypyxvcO1pnaHr7EDf9w/qUzXDj0Rh15Mbp4xcnQIiLQgiIgIiICIiAtdvqff3pWFfjLh+v1C2JWu31Pv70rCvxlw/X6hBsSiIgIiICIiCE5R90XHPiu4/O0arbwheJF9wqlxaz4xT1Ml7yS5GhjmpIIZpoI2QvlkdEyeSOJ0mmAAPcB1J04gNNk5R90XHPiu4/O0aw/EfhpaOKFlp7fdX1dLLSVTK6iuFvmMNVRVDN8ssT+unAEjqCCCdgr059lh21f+pWe5T9vv3GGHCs1mrpay1SWSOC6Wm65JTW6CSuYwPfU0lS2nkkjawtYAJW8jh2m/4vXD//AJB5ZcuER4hW5wk8r73S2XG7LDHBO62sfKYjJIS5gkncWyO7N8gY09m0kecTbFXwKorvh8+N3rKcmv8AQVdfFW1r7lWxvfVsZy/7M/UYa2B3I3mZGGE9evnHfG6+Dzil4iyylm8ditmRzRVtRb6eYRQ01ZHrVXT8rQ6KYlrCSHaJaDrqd6rSiqq3ixxW4Y4xl11vdputytlNboXW64ZPTW+llZcJKmOnZE5tFM9r4vrwfstaR2bhs7BUm4nO4i8IuC+bZLUcRJL9daW2CWmL7PSwspZ+du3RhrerdEgNkDz8KnFBwStpxm/2HIb9f81t96gbTVLchrWy8sbebQjEbGBh27fMBzEhpJ80LyUHAO3NsF5sl6yjKMttN0oHW2SkvlwbKyKF38jkYw846ae7md071bSPJxIyS+jivY8Ut93ltduumNXepldDBE97Z43U7YpWl7HdW9q/p9id9QdBU3geYZPwo8FLhvNa7pXX26ZRLbrTbIH0lK72NErHucIW/WhKeWN3KJpPsi3btbBvPGeBVBj+Z27KKvJcjyO7UFBNbIn3mqikZ2EhYS0sZEwbHZjzhonZ5i7prG0PgyY1SYXWYnJdr/W2AyxTW6kqK1u7M+N7pI3UcjWB7C1zuhc5x0AO7oUxM6RWWS8ReL+EcNeIdwro7vBDQWqKrtN8v9FbYqqOq7YMkiMdNJJE9haQ4OLGkecDvoVsZhtnvVmtckd+v78hr5pe2MxpYqdkILWgxRtY0eYHBxBeXP8AO0XHQUPquA9FdsEyLFr1leUX+mvjI4p6y5Vsck8TWHYEQEQjZ8PmbPp30VnKxEwMfhX215Z/z0vzSmahmFfbXln/AD0vzSma1dK9r8qf+YZVdoiIuRiIiICIiAiIgLXb6n396VhX4y4fr9QtiVrt9T7+9Kwr8ZcP1+oQbEoiICIiAiIgiuYW6pZc7Xe6aB9WKJk1PPBENyGKUxkvYP4xa6Jm2jqWl2tkBrsMc5tTTpzbi0+p1rqgR+Edn0PwKw0XZRjxFMU103tvt9JW+tXnl3afVcP0XVfRp5d2n1XD9F1X0asNFnnGFsTx/BoVldOJ+OWS3z11xq6mgooG88tTU0FRHHG31ucYwAPwrug4hWWqgjmhfWzQyND2SR22pc1zSNggiPqCPSvL4QN0spxqy4xkGL1eWWnLbxTWOoo6Vz2CFshLu3ke0gtYxzGkkEHqFZsEEdNBHDExscUbQxjGjQaANABM4wtieP4NCAeXdp9Vw/RdV9Gnl3afVcP0XVfRqw0TOMLYnj+DQqjIOMmH4nSxVN7uzrPTyyCGOavpJ4GPeQSGguYAToE6+ArKNzq1v0GMuUjj3NZaqok/gAjU1vNjtuR0D6G60FLc6J7mudT1kLZYyWkOaeVwI2CAQfQQCoRX2/KcKynMMwmv9dkmLutvbUuIU1ua+ohqImDYp5Gnmd2gafMI+yf3pnGFsTx/BoZ7C7XUwSXS6VcLqWW5SseymfrnjjYwNbz67nHRcR11sDfRSdRvh1ndDxMwq1ZNbaato6O4xGRlPcad0E8ZDi1zXsPcQQRsbB7wSCCpIuTErnEqypJ0iIi1oIiICIiAiIgLXb6n396VhX4y4fr9QtiVrt9T7+9Kwr8ZcP1+oQbEoiICIiAiIgIiICIiCHXaLNX8ULC+gmt0eCsoqj2TjkBNVLUkjsQzp5rR1JO+vUEdxUxVT8J6DFch4k8Rs7x2/wBbeamsrY7DX007HMgoKiibySRwgtbzB3M1xcC4E9zu8C2EBERAREQQ7MeF9tzTKMWyCevu1vueO1Dp6Z1urnwxzNdrtIZmDzZI3crdgjfTW9Eg4vGuJN6pp8vfn9ipcItFouAgoLzU3KN1LX08jtRScx12burAQ7+M8AddgWKsPluIWXPMerLFkNsprvaKxnJPSVTOZjx6D8BB0QR1BAIIIQZdrmvaHNIc0jYIOwQvqgENhy3Gs6tDLRV2Wm4X0dp8Uls3irxV00kYIidC9pIc3l5Wlp7gzoCTtZLhhxTxzjDizcgxisfWUHbPppBLC6GWGZmueN7HAFrhsdPhB7iglqIiAiIgIiIC12+p9/elYV+MuH6/ULYla7fU+/vSsJ/GXD9fqEGxKIiAiIgIiICIiAiKgPCz8KmbwXKHGq3yPkyiju8k8Mkza/xVtM+MRljSeyfzF4c8ju12Z7/QE64J3b2Xs+Rv8gfa+7G/1kHinYdj7Icrh/t2uyj32vfzadvX2TlYq/OHhJ9U0yy43P2ArcIkzG93i8PZaw25R0nYxSva2Cm0ymIdyb12h6nfVfo8gIiICIiAiIgKD8RsEveTRWR2MZZU4ZUUF0jr6g0lPHJFXRbIlilY4deZrnEHeg7RIJAInCIIXhvFe1ZrmOW4xS0d0orrjU8cNW2vonwxyte0lksTz0ex3K7R6E8u9aIJmii/EzCH8RMIutghvdxxuorI2iK62mYxVNO9rg5jmuHXWwNjY2CRsb2sLaM6qbHxAtXDuutN/uMvsM2rZlc9Mw0tW+PTJRI9mgyTZY4jQBL9ADzdhYSKobL4T2HX/wAIO58JaKrjqbxRUIn8bhlDonVTXP7ejPQfXI2CN/mlw6yNdyOjINvICIiCu/CIzf2uOBmc5E2Tsp6O0z+Lv3rU729nF/3HsXDwccI9rngRguPOj7KektMDqhmtane3tJf+496rrwzz5UWfh5w6Z5/ljlVFTVcX8qihd20516dcsZWxncgIiICIiAiLDZjepcexa6XGBrH1FPA50Qk3y8/c3evRsjfwLOima6opjtlY0syirt2B2arPaXGlF2q3dZKqucZHvd6T16NHqa0Bo7gAAAuPtdYx7h0X5oLtzfC7654fk0LGVX+ErwZpuPHBy/4pIyPx+SLxi2zSdOxq2AmJ2/QCdscf5L3L1e11jHuHRfmgntdYx7h0X5oJm+Ftzwj7jQ0X+pm+D5UVufXviBf6KSBmNyyWyihnZo+PEFsxIPpjYeXXrlB72r9LlXPtdYx7h0X5oJ7XWMe4dF+aCZvhbc8I+40LGRVz7XWMe4dF+aC+jh3jLSCLJRgjqCIh0TN8LbnhH3GhYqKE4xI6xZQLHDI91uqKJ9XBFK8vMDo3xse1pPXlPatOiehB13qbLlxcPq6rXvBMWERFpQREQFRvhhZjnuMcILjR8PMQumS3q8RS0D6y2kl1sjewh0wYxwldJonk5BprhzOI01j7Tzi71Fmx58tI8RVU09PSRyuG+zMszIufWiCW8+wD02Bvoo07ALBMAam3srpu909YTNI8+klziSSV14WBFdOXXNo+F/rGtba34tYtcsp4D8SrHfprXXWa9Werjq201fA+nc4NPnMcHAHlcNtPTuJX7m4RmFu4gYfZsltEna2260kdZA494a9oOnepw3oj0EEKJycNcWlaWvsFA9p9DoQQvrOG+LRsaxlhoWtaNBohAAHqW3N8LbnhH3GhY6Kufa6xj3DovzQT2usY9w6L80EzfC254R9xoVxeT5eeHTj1H/CUWCYtUXAu9DKyseIeX8JhAd+RbGqtxw0xVsjpBYKAPcAHOEI2dd2yuXtdYx7h0X5oJm+Ftzwj7jQsZFXPtdYx7h0X5oJ7XWMe4dF+aCZvhbc8I+40LGRVhd7HR4dZ6282OBttrKCB9S1sLi2OYMaXGORo6Frhsd2xvY0QCrMhlE8LJG75XtDhv1FaMXBjDiKqZvE/LzJhzUV4pfc/vX4kf+QUqUV4pfc/vX4kf+QTo3t6PjHitPbDlV1UVDSzVM7uSGFjpHu0TpoGydDr3BQGx+EDgOR2GsvlDfueyUlKysmuc1HUQ0wjcQABK+MNc/ZDTGCXh3mloPRTDJ4ZKjGrtFEx0kr6SZrWMG3OJYQAB6Stcbxw0yC4+CFw1tlHZ7j7JWJtnuVfY6Z76KtmbAWunhYdtdHN1Lh1DuZo110t8zMdjFcti454RkdtvNdRXvUVnp/G6+OqpJ6aeCHRPaGKVjZCwhp04NIOui9WD8YcQ4jNuRsN4E77a1r6yGqp5aSWBjgS17o5mMcGkNOna0dHqqW9iZPJTM8r4d49n1LnFNaW0FJW5hJWTTvifK18rKaKslcXPYIy4eaGlxaAXbKiUnD29Zdf88p8et+bx09+wKa1Ul2zHxgSVFY2VzjG4yncLXCUAAhjSe0LRoEnHKkW5S+EzYsr4qYPjGI19Pd6G8SVwraiSjqGeZDTukY+nkcGskaXt0XN5xr0jYKytN4VHC+rZQvhyYvir2c1HN7HVQjqXAbMcbzFyvlHd2TSX76cu+igNivtdmnEngqKbBMmxymx+Kvhr/ZG0SU9NRk0BjaxsmuVzeYaa4eaenXZ0sbg+GX6k4TeDlRz2K4w1dqvzJrhBJRyNko2eLVo55WkbjG3sG3aG3D1hMqf78heNLxqwqswysypl9ijslHOaSomnikikhnBDexdC9okEm3NAYW8x5hoHYXtwbidjXEiKtdj9y8ckonNZVU81PLTTwFw23nila17Q4A6Jbo6Ou5a28QeG2SXG75hdYLJfKm3W7iFSXuSitb5aSqraMW2KGSWke0sL3sc4kcjhsscN76K4+CFix/x693+1WXMrdWVLIaOWrzOardPURx8z2BjaqRz2saZH94b1J1vvViZmbCwqX7p1r+J6356lU5UGpfunWv4nrfnqVTlYdJ7aPh9ZZT3CIi42IiIgiXE77XaT42t365Cu+aaOnhfLK9sUTGlz3vOmtA6kk+gLo4nfa7SfG1u/XIVFONmLXLN+EOZWCzydndLlaqilptu5Q57oyA0n0B32JPwr0sP2EfGfCF7kIpvCZsWV8U8HxjEbhT3ahvElcK2oko6hnmQ07pGPp5HBrJGl7dFzeca9I2CpZZOPeBZHkkNit+QxT188r4KdxgmZT1Mjd8zIZ3MEUrho9GOceh9SpS4VF24pX/hfa7XheTYibXbbrQ1U9xtMlPTW+SS2uhjDZNcpaH6DXN6Hpo7Olx4J4HapIMGxvJcQ4jU2Q4+6B8pr7hXSWSmqqVm2TRudN2Do3OZ5jYwdc4HKBta4qm6J7wm8KLHctpKC35HdKS15RWXOtt0VNHSzxUz3x1UscUYmeDH2ro2MPJz7Jd0A2ArFm4p4vT2PKrxJc+W3YvPNTXebxeU+LSRRtkkby8u36Y9h2wOB3obIIWslPa8gyDgg3hSzCcjp8iq8gmqGXOrtroqGjhN2fVCq8Yd5oIjPRo88k61o7OVz+C/Y3hfH7EmYhkV3uWTVtZcbVNa7bJPTVEM9FBH/CtHKHMdG/bCeY6HKHbCRVNhdWaeERw/4fzvgvd/8XmjpmVcrIaSefsYn/wZlMbHCPn/AIoeWl3oX3NvCFwHh5UyU1+vjqOpipmVU0TKKoldTxv+w7bkjPZF2tNEnKSegC114oUV1x2959Z6ilutvxDLrVbzeru7Gqyu8TEdK2KZ0MkLSwARMG+1LSx/MdEd/wB4oiW3XzP6GhFyj4d5ra7fNX5A3Hay4thgbStjdJBLC1zC3sWt/hSC12zojvZUjZTLuOWE4LWw0d7vLqSrkp21boI6KomfBCd6kmbHG4wt6HrJyjofUVxvvHbB8dudDbqq99tXV1Cy5UkFBST1jqmme4hssYhY/nHmk+bvQGzodVQ9bjVPYeJeWXivtWf3/Gsmp6CtsdywiuruzmiZSMiMM7KeVga7zQ5r5Bylrz5w6hWFgXDuHD+O9s9ibFW2/HKDAobdSS1DHyNgd4655pzKSQXhvKS3mJ0B6FbyLXzv7R8h+Lqj5pym9u/3fTfim/4BQjO/tHyH4uqPmnKb27/d9N+Kb/gFcf2NPxnwhl3PQotxRBPD6+H0Npy4/AAQSf6gVKVwmhjqYZIpY2yxSNLHseNtcD0IIPeFx4VfV4lNeqYlIm03R9F4XYHXUv1q25HV0dG3pHTywRz9mPQ0OcOYgf8AESfhXHyKvnvsl+QQr0L4U/vjhPkWjWyCLH+RV899kvyCFPIq+e+yX5BCl8L3kc/Jbb2QRVFwEyTKeLtkyiurb82gfaMjrrJG2noo3CSOBzQ153/GO+voVm+RV899kvyCFL4XvI5+RbeyCLH+RV899kvyCFfRhd8BG8rlI9XiEKXwveRz8ktvdFGObibbiOoZaKvm+Dmmptf18rv6lOVh7BjcNi7aUzzV9fUBonranl7R4bvlbpoAa0bdpoAG3OPeSTmFyY9cV1Rk9kRYkREXMgiIgifE1pON07vQ26W5zj6h45D1XpWbr6GnudHNSVcLKimmaWSRPGw4H0KLPwe6RaZS5TVxwN6NbUU0UrwNdAXkAn8J2fWSu/BxKOryKptaZnv77ar6l7rPcix/kVfPfZL8ghTyKvnvsl+QQrbfC95HPyW29kEWP8ir577JfkEKeRV899kvyCFL4XvI5+Rbeh2X8A8Ezy/TXm+WR1ZXzsbHO5tdUQx1DGjTWyxskayQAdNOaei6sl8Hnh9l11NwuePiWd0MdO9kFZUU8MsTG8rGPijkbG9oaAAHNI10U28ir577JfkEKeRV899kvyCFT1O3HCfItveulpYaGmhp6eJkFPCwRxxRtDWsaBoNAHQADppdqx/kVfPfZL8ghTyKvnvsl+QQq3wveRz8i294s8Ibg+RE9B7HVHzTlOaFjo6Kna4ac2NoI9R0o1S4LLLNE673me7QRvEgpXQxxROcDtpeGjbtHR0TrYHTopYtGPiUzTFFM3tefBJ7LCIi4kEREBERBrv4FH2ocRv+vbz84xbELXfwKPtQ4jf9e3n5xi2IQEREBERAREQEREBERAREQEREBERAREQEREBERAREQEREGu/gUfahxG/69vPzjFsQtd/Ao+1DiN/17efnGLYhAREQEREBERAREQEREBERAREQEREBERAREQERcJpo6eF8sr2xRRtLnvedNaB1JJPcEHNFW92452WlldHbKSsvev8A56cNZAeuuj3kc34Wgj4Vijx7m9GMTfLWfsXp0ejOl1xeMPjaPGVst1aafVPOENZnPCO05dbxJNPiU8r6inYN7pZ+zbI/XeSx0cR+BpeT3K7vb7n968vy1n+leO8cZYr/AGmttlwxB1XQVsD6aogkrGFskb2lrmnp3EEj8qz/AMV0zY5x5ln5T+ChwUk488bLHjj43Os8TvHrq9pI5aSMjnbsdQXktjBHcXg+hfuCtLPBcwq2eDFSZG2itVRfK68VQf47NLHC+KmaPrcGgXbIJcS4cvMSPNHKFe3t9z+9eX5az/Sn+K6Zsc48yy3UVRe33P715flrP9K7qfj3GHA1WN1zI/SaeeKQj8hLdqT6K6ZGnI5x5llrosHi+aWfMYHyWurEr4tdrTyNMc0W/wCUxwBA79HWjroSs4vNroqw6ppri0wgiIsAREQEREBERAREQEREBERAREQFQvE7MpcrvE9shkc2yUEpjdG3oKuZp6ud62MdsBvdzAuO9MLbvutU6htdZUsG3wwvkA9ZDSf8lqxZhq00eztzomucd72SNk/lJJX03oTo9NddWNV+21vn3r2Rd7ERF9k1iKBcZc1uWF47bhZ4XzXS7XKC107o42SOjdIHEua17mtc7lY7Qc4DZG+ir68ZrxHxXDsrrKuO4Rw0tLBNQXO80lFHM2YztY+J0dPI9j2FpBB00jzh6iuTE6TTh1TTMTNovNo+ar+XnqLlR0tZS0k9VBDVVRcKeCSQNfMWjmdyNJ27Q6nXcFUV9z2/8Lr5f6e63Q5PTQY3NfIRLTRwOjmilEZjHZgfW3c7fstuGj1K8Edsyal4n8LazIsjbeZasV8hpo6OOGKmeaQktjc3znN6688k9N7HcsZ6TF7RTN7xE9mi821+FxeiIi7Uc6WpqbbXQ11DOaSvg32U7RvW+9pH8Zp9IPf+EAjYXCcqizLHae4sj7GUl0U8G99lK06c38HpB9IIPpWu6sbgJVPFxyijH8C3xWqA/wCN7ZGOP9ULP6gvA9MdHpxOjzjd9NuEza3NnGmFwIiL4YEREBERAREQEREBERAREQEREHGSNs0bo3jmY4FrgfSCtXZrRNjlbVWeoDu2oJDBzOGudg6xvHwFhafw7HoW0ih3EHh3BmUUdVTyNorxTt5Yqgt22Rm99lIPS3fUEdWkkjoXNd7XovptPRMSacT9NXI3NcMircgozT+wdpoLoHc3beO3F1Lyd3Ly8sMnNvr6taHfvph/ZrPeU/8ApSx730HlBL+6Ke3ex3jHZXR3S0VkHL/80ETp4HdfRIwEfDp2j8Cw5vVGDoykH1Fjv2L7en1v+2HXo3Wn6JkzqRO445cuI1sqLTl1jo7ZRgsnp6m13eSaeKdjgWPYTBHyOb3hwJ9WtEr5Pwlpbhit3sVzyC/XeG5dmJamuqmPljDHBzRGBGGN6jr5uz6VLPZui/nj/Yd+xPZui/nj/Yd+xXqKZ01Reez+2MmrUxF54fWm/wCQTXavbLUOmtU1mlpXOHYyU8j2vfsa3zbaBvfcT09Kjds4NQY3XWq6Ul5vd7rLHFMLXQ3Wvb4u3niMfZlwiLg3WhzHmI0O/uM79m6L+eP9h37E9m6L+eP9h37FZwKKpypp0mTVqRsXrPd9cTsevgyCX90XKG8Z06aMS4tZI4i4B723+RxaN9SB4oN/g2FIvZui/nj/AGHfsXopqrx9wbR01XWvPcylpZJSf7LSpNFVOma55eRkzqdyt3gdY5KOw1t3mYWPukwfCCNHsGDlYT+E87h8Dwo5hvCSvvMzKnIac0FtHXxBzwZp/gfynTGfBsuPceXqDdTGNjY1jGhjGjQa0aAHqXzHpbp9FdGb4U31z3fBY0OSIi+UBERAREQEREBERAREQEREBERAREQEREBERAREQEREBERAREQEREBERAREQEREBERAREQEREH/2Q==;" vertex="1" parent="1">
          <mxGeometry x="880" y="40" width="224" height="471" as="geometry" />
        </mxCell>
        <mxCell id="qrhnkttYhv8li2d0B4WN-2" value="Programmer Agent – Generates code based on user input." style="text;html=1;align=left;verticalAlign=middle;whiteSpace=wrap;rounded=0;fontSize=14;" vertex="1" parent="1">
          <mxGeometry x="1130" y="109" width="460" height="30" as="geometry" />
        </mxCell>
        <mxCell id="qrhnkttYhv8li2d0B4WN-3" value="File Saver Agent – Creates files from the generated code." style="text;html=1;align=left;verticalAlign=middle;whiteSpace=wrap;rounded=0;fontSize=14;" vertex="1" parent="1">
          <mxGeometry x="1130" y="157" width="460" height="30" as="geometry" />
        </mxCell>
        <mxCell id="qrhnkttYhv8li2d0B4WN-4" value="Executor Agent – Runs the generated program." style="text;html=1;align=left;verticalAlign=middle;whiteSpace=wrap;rounded=0;fontSize=14;" vertex="1" parent="1">
          <mxGeometry x="1130" y="201" width="450" height="30" as="geometry" />
        </mxCell>
        <mxCell id="qrhnkttYhv8li2d0B4WN-5" value="Debugger Agent – Fixes errors if they occur." style="text;html=1;align=left;verticalAlign=middle;whiteSpace=wrap;rounded=0;fontSize=14;" vertex="1" parent="1">
          <mxGeometry x="1130" y="242" width="460" height="30" as="geometry" />
        </mxCell>
        <mxCell id="qrhnkttYhv8li2d0B4WN-6" value="Readme Agent -&amp;nbsp;Generates README.md and developer.md files based on the program." style="text;html=1;align=left;verticalAlign=middle;whiteSpace=wrap;rounded=0;fontSize=14;" vertex="1" parent="1">
          <mxGeometry x="1130" y="284" width="470" height="30" as="geometry" />
        </mxCell>
        <mxCell id="qrhnkttYhv8li2d0B4WN-7" value="Code Generation Agents" style="text;html=1;align=center;verticalAlign=middle;resizable=0;points=[];autosize=1;strokeColor=none;fillColor=none;fontSize=14;fontStyle=1" vertex="1" parent="1">
          <mxGeometry x="850" width="180" height="30" as="geometry" />
        </mxCell>
      </root>
    </mxGraphModel>
  </diagram>
</mxfile>
